<svg version="1.1" xmlns="http://www.w3.org/2000/svg" width="48" height="48">
<path d="M0 0 C1.4540625 0.0309375 1.4540625 0.0309375 2.9375 0.0625 C4.30938113 3.6393017 5.65686104 7.22481664 7 10.8125 C7.58491211 12.33617187 7.58491211 12.33617187 8.18164062 13.890625 C8.54580078 14.8703125 8.90996094 15.85 9.28515625 16.859375 C9.62554932 17.76010742 9.96594238 18.66083984 10.31665039 19.58886719 C10.97544154 22.21366937 10.84317926 23.54814966 9.9375 26.0625 C7 25.25 7 25.25 3.9375 24.0625 C3.6075 23.0725 3.2775 22.0825 2.9375 21.0625 C0.2975 20.7325 -2.3425 20.4025 -5.0625 20.0625 C-5.3925 21.7125 -5.7225 23.3625 -6.0625 25.0625 C-8.0425 25.0625 -10.0225 25.0625 -12.0625 25.0625 C-11.56619307 18.93448811 -10.1412989 14.18132774 -7.5625 8.625 C-7.24152344 7.90634766 -6.92054688 7.18769531 -6.58984375 6.44726562 C-3.71395808 0.07579506 -3.71395808 0.07579506 0 0 Z M-2.0625 8.0625 C-2.7225 10.3725 -3.3825 12.6825 -4.0625 15.0625 C-2.0825 15.0625 -0.1025 15.0625 1.9375 15.0625 C1.33566251 13.04204558 0.66443904 11.04138961 -0.0625 9.0625 C-0.7225 8.7325 -1.3825 8.4025 -2.0625 8.0625 Z " fill="#8F66EE" transform="translate(14.0625,10.9375)"/>
<path d="M0 0 C5.61 0 11.22 0 17 0 C18 5 18 5 16.70703125 7.02734375 C15.76923828 7.97287109 15.76923828 7.97287109 14.8125 8.9375 C11.77632109 12.13763257 9.33459308 15.26465108 7 19 C7.71027344 19.04898437 8.42054687 19.09796875 9.15234375 19.1484375 C10.07144531 19.22320313 10.99054687 19.29796875 11.9375 19.375 C12.85402344 19.44460937 13.77054688 19.51421875 14.71484375 19.5859375 C15.46894531 19.72257812 16.22304688 19.85921875 17 20 C17.33 20.66 17.66 21.32 18 22 C17.67 22.99 17.34 23.98 17 25 C11.10926427 26.17814715 4.81260782 26.93753594 -1 25 C-1.48535442 19.7237278 -0.303298 17.29863687 2.875 13.125 C3.59429688 12.15820312 4.31359375 11.19140625 5.0546875 10.1953125 C5.69664063 9.47085937 6.33859375 8.74640625 7 8 C7.66 8 8.32 8 9 8 C9 7.34 9 6.68 9 6 C6.03 5.67 3.06 5.34 0 5 C-0.33 4.01 -0.66 3.02 -1 2 C-0.67 1.34 -0.34 0.68 0 0 Z " fill="#5F45E2" transform="translate(27,11)"/>
<path d="M0 0 C5.61 0 11.22 0 17 0 C18 5 18 5 16.56640625 7.23828125 C15.90511719 7.92277344 15.24382813 8.60726563 14.5625 9.3125 C13.90378906 10.00988281 13.24507812 10.70726562 12.56640625 11.42578125 C12.04949219 11.94527344 11.53257813 12.46476562 11 13 C9.4375 11.75 9.4375 11.75 8 10 C8.33 8.68 8.66 7.36 9 6 C6.03 5.67 3.06 5.34 0 5 C-0.33 4.01 -0.66 3.02 -1 2 C-0.67 1.34 -0.34 0.68 0 0 Z " fill="#424DD1" transform="translate(27,11)"/>
<path d="M0 0 C1.0257259 4.41062136 1.03684712 6.92630576 -1 11 C-3.84262206 9.57868897 -4.59335994 7.81328011 -6 5 C-6.1875 2.1875 -6.1875 2.1875 -6 0 C-3.50907189 -1.24546405 -2.58919267 -0.7767578 0 0 Z " fill="#8058E7" transform="translate(18,14)"/>
<path d="M0 0 C0.99 0.99 1.98 1.98 3 3 C1.79618552 5.49361571 0.54571278 7.68143083 -1 10 C-2.32 10 -3.64 10 -5 10 C-5.33 11.32 -5.66 12.64 -6 14 C-6.66 14 -7.32 14 -8 14 C-7.37606349 10.23880524 -5.65226285 7.81039958 -3.4375 4.75 C-2.79683594 3.85796875 -2.15617187 2.9659375 -1.49609375 2.046875 C-0.75552734 1.03367187 -0.75552734 1.03367187 0 0 Z " fill="#8D73F3" transform="translate(34,19)"/>
<path d="M0 0 C1.4540625 0.0309375 1.4540625 0.0309375 2.9375 0.0625 C2.9375 0.7225 2.9375 1.3825 2.9375 2.0625 C1.2875 2.3925 -0.3625 2.7225 -2.0625 3.0625 C-1.7325 4.0525 -1.4025 5.0425 -1.0625 6.0625 C-2.27734375 8.10546875 -2.27734375 8.10546875 -4 10.25 C-4.56589844 10.96542969 -5.13179687 11.68085938 -5.71484375 12.41796875 C-6.15957031 12.96066406 -6.60429688 13.50335938 -7.0625 14.0625 C-7.7225 13.7325 -8.3825 13.4025 -9.0625 13.0625 C-8.2530146 11.08209844 -7.43982831 9.10320923 -6.625 7.125 C-6.17253906 6.02285156 -5.72007813 4.92070312 -5.25390625 3.78515625 C-3.62997814 0.07408119 -3.62997814 0.07408119 0 0 Z " fill="#6343D2" transform="translate(14.0625,10.9375)"/>
<path d="M0 0 C4.95 0 9.9 0 15 0 C15 1.32 15 2.64 15 4 C14.34 4.66 13.68 5.32 13 6 C12.01 5.67 11.02 5.34 10 5 C10.33 4.01 10.66 3.02 11 2 C7.37 2 3.74 2 0 2 C0 1.34 0 0.68 0 0 Z " fill="#7E58FA" transform="translate(28,12)"/>
<path d="M0 0 C0.66 0.33 1.32 0.66 2 1 C2 1.99 2 2.98 2 4 C2.66 4 3.32 4 4 4 C4 5.98 4 7.96 4 10 C2.02 10 0.04 10 -2 10 C-1.125 2.25 -1.125 2.25 0 0 Z " fill="#6241E3" transform="translate(4,26)"/>
<path d="M0 0 C0.99 0.33 1.98 0.66 3 1 C3 1.66 3 2.32 3 3 C4.32 3.66 5.64 4.32 7 5 C6.67 6.32 6.34 7.64 6 9 C4.02 8.34 2.04 7.68 0 7 C0 4.69 0 2.38 0 0 Z " fill="#6846EF" transform="translate(18,28)"/>
<path d="M0 0 C2.64 0 5.28 0 8 0 C8.33 0.66 8.66 1.32 9 2 C6.29120665 3.35439668 3.99066732 3.06501451 1 3 C0.67 2.01 0.34 1.02 0 0 Z " fill="#8953FB" transform="translate(33,33)"/>
<path d="M0 0 C3.63 0 7.26 0 11 0 C10.67 0.66 10.34 1.32 10 2 C7.71484375 2.4140625 7.71484375 2.4140625 4.9375 2.625 C4.01839844 2.69976563 3.09929688 2.77453125 2.15234375 2.8515625 C1.44207031 2.90054687 0.73179687 2.94953125 0 3 C0 2.01 0 1.02 0 0 Z " fill="#8B51FD" transform="translate(6,27)"/>
<path d="M0 0 C-0.33 2.64 -0.66 5.28 -1 8 C-1.99 7.34 -2.98 6.68 -4 6 C-4.1875 3.375 -4.1875 3.375 -4 1 C-2 0 -2 0 0 0 Z " fill="#A87CFA" transform="translate(16,13)"/>
<path d="M0 0 C1.32 0 2.64 0 4 0 C2.62845496 2.95409701 1.01136276 5.44008376 -1 8 C-1.66 7.67 -2.32 7.34 -3 7 C-2.01 4.69 -1.02 2.38 0 0 Z " fill="#6C4BDB" transform="translate(8,17)"/>
<path d="M0 0 C0.66 0.33 1.32 0.66 2 1 C2 1.99 2 2.98 2 4 C2.66 4 3.32 4 4 4 C4 4.66 4 5.32 4 6 C2.68 6.33 1.36 6.66 0 7 C-1.125 2.25 -1.125 2.25 0 0 Z " fill="#754DE5" transform="translate(4,26)"/>
<path d="M0 0 C-0.33 1.32 -0.66 2.64 -1 4 C-2.32 3.67 -3.64 3.34 -5 3 C-4.67 2.67 -4.34 2.34 -4 2 C-4.99 1.34 -5.98 0.68 -7 0 C-3.98968256 -0.93423645 -3.13349732 -1.04449911 0 0 Z " fill="#704ED8" transform="translate(45,32)"/>
<path d="M0 0 C1.35439668 2.70879335 1.06501451 5.00933268 1 8 C-0.32 7.67 -1.64 7.34 -3 7 C-1.125 1.125 -1.125 1.125 0 0 Z " fill="#905DFC" transform="translate(19,19)"/>
</svg>
